<svg width="512" height="512" viewBox="0 0 512 512" fill="none" xmlns="http://www.w3.org/2000/svg">
<g clip-path="url(#clip0_2159_167)">
<path d="M394.24 0H117.76C52.7229 0 0 52.7229 0 117.76V394.24C0 459.277 52.7229 512 117.76 512H394.24C459.277 512 512 459.277 512 394.24V117.76C512 52.7229 459.277 0 394.24 0Z" fill="#EA4118"/>
<path d="M124.404 181.273C123.652 173.627 129.659 167 137.341 167H157.659C165.341 167 171.348 173.627 170.596 181.273L167.154 216.273C166.499 222.927 160.903 228 154.216 228H140.784C134.097 228 128.501 222.927 127.846 216.273L124.404 181.273Z" fill="#BC9021"/>
<path d="M441.932 128C441.931 128.992 441.908 129.989 441.858 130.991L423.79 498.991C422.195 531.479 395.39 557 362.863 557H361.137C328.61 557 301.805 531.479 300.21 498.991L282.142 130.991C282.092 129.989 282.069 128.992 282.068 128H441.932Z" fill="#16100E"/>
<path d="M362 171C406.183 171 442 161.374 442 149.5V130H282V149.5C282 161.374 317.817 171 362 171Z" fill="#E3D1AA"/>
<ellipse cx="362" cy="128.5" rx="80" ry="21.5" fill="#F3ECDD"/>
<path d="M341.404 211.273C340.652 203.627 346.659 197 354.341 197H374.659C382.341 197 388.348 203.627 387.596 211.273L384.154 246.273C383.499 252.927 377.903 258 371.216 258H357.784C351.097 258 345.501 252.927 344.846 246.273L341.404 211.273Z" fill="#BC9021"/>
<path d="M229.932 128C229.931 128.992 229.908 129.989 229.858 130.991L211.79 498.991C210.195 531.479 183.39 557 150.863 557H149.137C116.61 557 89.805 531.479 88.21 498.991L70.1416 130.991C70.0924 129.989 70.0693 128.992 70.0684 128H229.932Z" fill="#16100E"/>
<path d="M150 171C194.183 171 230 161.374 230 149.5V130H70V149.5C70 161.374 105.817 171 150 171Z" fill="#E3D1AA"/>
<path d="M230 128.5C230 140.374 194.183 150 150 150C105.817 150 70 140.374 70 128.5C70 116.626 105.817 107 150 107C194.183 107 230 116.626 230 128.5Z" fill="#F3ECDD"/>
<path d="M126.404 211.273C125.652 203.627 131.659 197 139.341 197H159.659C167.341 197 173.348 203.627 172.596 211.273L169.154 246.273C168.499 252.927 162.903 258 156.216 258H142.784C136.097 258 130.501 252.927 129.846 246.273L126.404 211.273Z" fill="#BC9021"/>
</g>
<defs>
<clipPath id="clip0_2159_167">
<rect width="512" height="512" rx="118" fill="white"/>
</clipPath>
</defs>
</svg>
