<svg width="512" height="512" viewBox="0 0 512 512" fill="none" xmlns="http://www.w3.org/2000/svg">
<g clip-path="url(#clip0_2159_62)">
<path d="M394.24 0H117.76C52.7229 0 0 52.7229 0 117.76V394.24C0 459.277 52.7229 512 117.76 512H394.24C459.277 512 512 459.277 512 394.24V117.76C512 52.7229 459.277 0 394.24 0Z" fill="#EA4118"/>
<path d="M283.142 154.991C281.432 120.169 309.204 91 344.068 91H381.932C416.796 91 444.568 120.169 442.858 154.991L424.79 522.991C423.195 555.479 396.39 581 363.864 581H362.136C329.61 581 302.805 555.479 301.21 522.991L283.142 154.991Z" fill="#16100E"/>
<path d="M424.79 522.991C423.195 555.478 396.39 580.999 363.864 581H362.137C329.61 581 302.805 555.479 301.21 522.991L300.67 512H425.33L424.79 522.991ZM381.932 91C410.927 91.0003 435.016 111.176 441.321 138H284.679C290.984 111.176 315.073 91.0002 344.068 91H381.932Z" fill="#F3ECDD"/>
<path d="M339.404 181.273C338.652 173.627 344.659 167 352.341 167H372.659C380.341 167 386.348 173.627 385.596 181.273L382.154 216.273C381.499 222.927 375.903 228 369.216 228H355.784C349.097 228 343.501 222.927 342.846 216.273L339.404 181.273Z" fill="#BC9021"/>
<path d="M68.1418 154.991C66.4322 120.169 94.2044 91 129.068 91H166.932C201.796 91 229.568 120.169 227.858 154.991L209.79 522.991C208.195 555.479 181.39 581 148.864 581H147.136C114.61 581 87.8049 555.479 86.2099 522.991L68.1418 154.991Z" fill="#16100E"/>
<path d="M209.79 522.991C208.195 555.479 181.39 581 148.863 581H147.137C114.61 581 87.805 555.479 86.21 522.991L85.6699 512H210.33L209.79 522.991ZM166.932 91C195.927 91 220.016 111.176 226.321 138H69.6787C75.9837 111.176 100.073 91.0001 129.068 91H166.932Z" fill="#F3ECDD"/>
<path d="M124.404 181.273C123.652 173.627 129.659 167 137.341 167H157.659C165.341 167 171.348 173.627 170.596 181.273L167.154 216.273C166.499 222.927 160.903 228 154.216 228H140.784C134.097 228 128.501 222.927 127.846 216.273L124.404 181.273Z" fill="#BC9021"/>
</g>
<defs>
<clipPath id="clip0_2159_62">
<rect width="512" height="512" rx="118" fill="white"/>
</clipPath>
</defs>
</svg>
